<svg width="20" height="20" viewBox="0 0 20 20" fill="none" xmlns="http://www.w3.org/2000/svg">
<g clip-path="url(#clip0_38_5277)">
<path fill-rule="evenodd" clip-rule="evenodd" d="M14.7461 0.605461C15.0464 0.546711 15.3003 0.624836 15.5078 0.839836C15.7048 1.52502 15.8871 2.21512 16.0547 2.91015C16.2949 3.46284 16.705 3.82091 17.2852 3.98437C17.8462 4.1096 18.4061 4.2398 18.9649 4.37499C19.2378 4.48464 19.368 4.68644 19.3555 4.98046C19.368 5.27448 19.2378 5.47628 18.9649 5.58593C18.4061 5.72112 17.8462 5.85132 17.2852 5.97655C16.705 6.14003 16.2949 6.49808 16.0547 7.05077C15.8871 7.74581 15.7048 8.43589 15.5078 9.12109C15.2365 9.37769 14.9306 9.42327 14.5899 9.2578C14.4881 9.1821 14.4165 9.08444 14.375 8.96484C14.2398 8.40609 14.1096 7.84616 13.9844 7.28515C13.8209 6.70503 13.4629 6.29487 12.9102 6.05468C12.2173 5.87823 11.5272 5.69593 10.8399 5.5078C10.6185 5.30003 10.5468 5.04612 10.625 4.74609C10.6665 4.62648 10.7381 4.52882 10.8399 4.45312C11.5272 4.26499 12.2173 4.08269 12.9102 3.90624C13.4629 3.66605 13.8209 3.25589 13.9844 2.67577C14.1103 2.05478 14.2666 1.4428 14.4531 0.839836C14.5357 0.737461 14.6334 0.659336 14.7461 0.605461Z" fill="white"/>
<path fill-rule="evenodd" clip-rule="evenodd" d="M6.6211 4.98048C7.00626 4.89649 7.28622 5.02669 7.46095 5.3711C7.487 9.90235 7.487 14.4336 7.46095 18.9649C7.3513 19.2378 7.1495 19.368 6.85548 19.3555C6.56146 19.368 6.35966 19.2378 6.25001 18.9649C6.22396 14.4336 6.22396 9.90235 6.25001 5.3711C6.32899 5.19454 6.45271 5.06435 6.6211 4.98048Z" fill="white"/>
<path fill-rule="evenodd" clip-rule="evenodd" d="M0.996095 6.54298C1.38125 6.45899 1.6612 6.58919 1.83594 6.9336C1.86198 10.4232 1.86198 13.9128 1.83594 17.4024C1.7263 17.6753 1.52447 17.8055 1.23047 17.793C0.936466 17.8055 0.734642 17.6753 0.625001 17.4024C0.598958 13.9128 0.598958 10.4232 0.625001 6.9336C0.703997 6.75704 0.827696 6.62685 0.996095 6.54298Z" fill="white"/>
<path fill-rule="evenodd" clip-rule="evenodd" d="M9.4336 6.85548C9.81876 6.77149 10.0987 6.90169 10.2734 7.2461C10.2995 10.5274 10.2995 13.8086 10.2734 17.0899C10.1638 17.3628 9.962 17.493 9.66798 17.4805C9.37396 17.493 9.17216 17.3628 9.06251 17.0899C9.03646 13.8086 9.03646 10.5274 9.06251 7.2461C9.14149 7.06954 9.26521 6.93935 9.4336 6.85548Z" fill="white"/>
<path fill-rule="evenodd" clip-rule="evenodd" d="M3.80859 7.79298C4.19375 7.70899 4.47371 7.83919 4.64844 8.1836C4.67449 10.8399 4.67449 13.4961 4.64844 16.1524C4.53879 16.4253 4.33699 16.5555 4.04297 16.543C3.74897 16.5555 3.54714 16.4253 3.4375 16.1524C3.41146 13.4961 3.41146 10.8399 3.4375 8.1836C3.5165 8.00704 3.6402 7.87685 3.80859 7.79298Z" fill="white"/>
<path fill-rule="evenodd" clip-rule="evenodd" d="M12.2461 9.04298C12.6313 8.95899 12.9112 9.08919 13.0859 9.4336C13.112 11.2565 13.112 13.0794 13.0859 14.9024C12.9763 15.1753 12.7745 15.3055 12.4805 15.293C12.1865 15.3055 11.9847 15.1753 11.875 14.9024C11.849 13.0794 11.849 11.2565 11.875 9.4336C11.954 9.25704 12.0777 9.12685 12.2461 9.04298Z" fill="white"/>
</g>
<defs>
<clipPath id="clip0_38_5277">
<rect width="20" height="20" fill="white"/>
</clipPath>
</defs>
</svg>
